<?xml version="1.0" encoding="UTF-8"?><svg id="Layer_1" xmlns="http://www.w3.org/2000/svg" viewBox="0 0 170 170"><defs><style>.cls-1{fill:#fff;}</style></defs><polygon class="cls-1" points="155.85 37.81 139.91 37.81 151.18 26.54 143.46 18.82 132.19 30.09 132.19 14.15 121.27 14.15 121.27 30.09 110.01 18.82 102.29 26.54 113.55 37.81 97.62 37.81 97.62 48.73 113.55 48.73 102.29 59.99 110.01 67.71 121.27 56.45 121.27 72.38 132.19 72.38 132.19 56.45 143.46 67.71 151.18 59.99 139.91 48.73 155.85 48.73 155.85 37.81"/><polygon class="cls-1" points="30.98 110.71 69.66 100.34 59.29 139.02 76.12 155.85 87.46 113.52 98.8 71.2 14.15 93.88 30.98 110.71"/></svg>