<svg width="3000" height="1477" viewBox="0 0 3000 1477" fill="none" xmlns="http://www.w3.org/2000/svg">
<path d="M0 346.871L45.5 342.333C91 337.733 182 328.657 272.8 324.057C363.7 319.519 454.3 319.519 545.2 321.073C636 322.627 727 325.735 818 325.735C909 325.735 1000 322.627 1091 325.611C1182 328.657 1273 337.733 1363.8 334.625C1454.7 331.516 1545.3 316.224 1636.2 314.67C1727 313.116 1818 325.3 1909 328.408C2000 331.516 2091 325.549 2182 324.057C2273 322.627 2364 325.735 2454.8 328.719C2545.7 331.765 2636.3 334.625 2727.2 336.117C2818 337.546 2909 337.546 2954.5 337.546H3000V272.896H2954.5C2909 272.896 2818 272.896 2727.2 272.896C2636.3 272.896 2545.7 272.896 2454.8 272.896C2364 272.896 2273 272.896 2182 272.896C2091 272.896 2000 272.896 1909 272.896C1818 272.896 1727 272.896 1636.2 272.896C1545.3 272.896 1454.7 272.896 1363.8 272.896C1273 272.896 1182 272.896 1091 272.896C1000 272.896 909 272.896 818 272.896C727 272.896 636 272.896 545.2 272.896C454.3 272.896 363.7 272.896 272.8 272.896C182 272.896 91 272.896 45.5 272.896H0V346.871Z" fill="#D5D5D5"/>
<path d="M0 512.226L45.5 515.334C91 518.442 182 524.658 272.8 542.996C363.7 561.335 454.3 591.795 545.2 581.04C636 570.224 727 518.255 818 503.025C909 487.795 1000 509.304 1091 513.904C1182 518.442 1273 506.009 1363.8 489.101C1454.7 472.255 1545.3 450.87 1636.2 461.687C1727 472.441 1818 515.334 1909 545.918C2000 576.44 2091 594.716 2182 600.808C2273 606.9 2364 600.933 2454.8 585.703C2545.7 570.473 2636.3 545.98 2727.2 535.35C2818 524.658 2909 527.766 2954.5 529.32L3000 530.875V336.303H2954.5C2909 336.303 2818 336.303 2727.2 334.874C2636.3 333.382 2545.7 330.522 2454.8 327.476C2364 324.492 2273 321.384 2182 322.814C2091 324.306 2000 330.274 1909 327.165C1818 324.057 1727 311.873 1636.2 313.427C1545.3 314.981 1454.7 330.274 1363.8 333.382C1273 336.49 1182 327.414 1091 324.368C1000 321.384 909 324.492 818 324.492C727 324.492 636 321.384 545.2 319.83C454.3 318.276 363.7 318.276 272.8 322.814C182 327.414 91 336.49 45.5 341.09L0 345.628V512.226Z" fill="#E0E0E0"/>
<path d="M0 760.258L45.5 763.241C91 766.287 182 772.255 272.8 779.963C363.7 787.609 454.3 796.934 545.2 796.934C636 796.934 727 787.609 818 778.409C909 769.147 1000 760.071 1091 740.179C1182 720.287 1273 689.578 1363.8 680.378C1454.7 671.178 1545.3 683.362 1636.2 680.378C1727 677.394 1818 659.118 1909 665.334C2000 671.55 2091 702.259 2182 715.997C2273 729.798 2364 726.689 2454.8 738.936C2545.7 751.12 2636.3 778.72 2727.2 786.366C2818 794.012 2909 781.828 2954.5 775.674L3000 769.582V529.632L2954.5 528.078C2909 526.524 2818 523.415 2727.2 534.107C2636.3 544.737 2545.7 569.23 2454.8 584.46C2364 599.69 2273 605.657 2182 599.565C2091 593.473 2000 575.197 1909 544.675C1818 514.091 1727 471.198 1636.2 460.444C1545.3 449.628 1454.7 471.012 1363.8 487.858C1273 504.766 1182 517.199 1091 512.661C1000 508.061 909 486.553 818 501.783C727 517.013 636 568.981 545.2 579.797C454.3 590.552 363.7 560.092 272.8 541.754C182 523.415 91 517.199 45.5 514.091L0 510.983V760.258Z" fill="#EAEAEA"/>
<path d="M0 870.287L45.5 864.195C91 858.041 182 845.857 272.8 841.257C363.7 836.719 454.3 839.827 545.2 838.273C636 836.719 727 830.502 818 827.394C909 824.286 1000 824.286 1091 812.04C1182 799.856 1273 775.363 1363.8 772.38C1454.7 769.396 1545.3 787.796 1636.2 783.258C1727 778.72 1818 751.12 1909 745.028C2000 738.936 2091 754.228 2182 764.92C2273 775.612 2364 781.58 2454.8 796.81C2545.7 812.04 2636.3 836.532 2727.2 853.378C2818 870.287 2909 879.611 2954.5 884.274L3000 888.936V768.339L2954.5 774.431C2909 780.585 2818 792.769 2727.2 785.123C2636.3 777.477 2545.7 749.877 2454.8 737.693C2364 725.446 2273 728.555 2182 714.754C2091 701.016 2000 670.308 1909 664.091C1818 657.875 1727 676.151 1636.2 679.135C1545.3 682.119 1454.7 669.935 1363.8 679.135C1273 688.335 1182 719.044 1091 738.936C1000 758.828 909 767.904 818 777.166C727 786.366 636 795.691 545.2 795.691C454.3 795.691 363.7 786.366 272.8 778.72C182 771.012 91 765.044 45.5 761.998L0 759.015V870.287Z" fill="#F6F5F5"/>
<path d="M0 943.638L45.5 939.1C91 934.5 182 925.424 272.8 913.178C363.7 900.932 454.3 885.64 545.2 879.486C636 873.394 727 876.502 818 881.04C909 885.64 1000 891.607 1091 885.515C1182 879.423 1273 861.147 1363.8 852.072C1454.7 842.934 1545.3 842.934 1636.2 835.288C1727 827.579 1818 812.287 1909 810.733C2000 809.179 2091 821.363 2182 825.963C2273 830.501 2364 827.393 2454.8 836.593C2545.7 845.855 2636.3 867.364 2727.2 888.81C2818 910.256 2909 931.641 2954.5 942.271L3000 952.963V887.691L2954.5 883.029C2909 878.367 2818 869.042 2727.2 852.134C2636.3 835.288 2545.7 810.795 2454.8 795.565C2364 780.335 2273 774.367 2182 763.675C2091 752.983 2000 737.691 1909 743.783C1818 749.875 1727 777.476 1636.2 782.014C1545.3 786.551 1454.7 768.151 1363.8 771.135C1273 774.119 1182 798.611 1091 810.795C1000 823.041 909 823.041 818 826.15C727 829.258 636 835.474 545.2 837.028C454.3 838.582 363.7 835.474 272.8 840.012C182 844.612 91 856.796 45.5 862.95L0 869.042V943.638Z" fill="#F8F7F7"/>
<path d="M0 971.611L45.5 976.149C91 980.749 182 989.825 272.8 986.717C363.7 983.609 454.3 968.317 545.2 956.071C636 943.824 727 934.749 818 934.749C909 934.749 1000 943.824 1091 936.178C1182 928.532 1273 904.04 1363.8 893.41C1454.7 882.718 1545.3 885.826 1636.2 884.272C1727 882.718 1818 876.502 1909 881.039C2000 885.64 2091 900.932 2182 900.932C2273 900.932 2364 885.64 2454.8 890.177C2545.7 894.715 2636.3 919.208 2727.2 943.638C2818 968.068 2909 992.56 2954.5 1004.74L3000 1016.99V951.719L2954.5 941.027C2909 930.397 2818 909.013 2727.2 887.567C2636.3 866.12 2545.7 844.612 2454.8 835.349C2364 826.149 2273 829.257 2182 824.72C2091 820.119 2000 807.935 1909 809.49C1818 811.044 1727 826.336 1636.2 834.044C1545.3 841.69 1454.7 841.69 1363.8 850.828C1273 859.904 1182 878.18 1091 884.272C1000 890.364 909 884.396 818 879.796C727 875.258 636 872.15 545.2 878.242C454.3 884.396 363.7 899.688 272.8 911.935C182 924.181 91 933.257 45.5 937.857L0 942.395V971.611Z" fill="#F6F5F5"/>
<path d="M0 1072.32L45.5 1076.86C91 1081.46 182 1090.53 272.8 1087.42C363.7 1084.31 454.3 1069.02 545.2 1055.22C636 1041.42 727 1029.24 818 1027.75C909 1026.32 1000 1035.64 1091 1040.3C1182 1044.97 1273 1044.97 1363.8 1046.4C1454.7 1047.89 1545.3 1050.75 1636.2 1046.08C1727 1041.42 1818 1029.24 1909 1020.1C2000 1010.96 2091 1004.99 2182 1001.95C2273 998.965 2364 998.965 2454.8 1008.1C2545.7 1017.18 2636.3 1035.45 2727.2 1047.64C2818 1059.88 2909 1066.1 2954.5 1069.21L3000 1072.32V1015.75L2954.5 1003.5C2909 991.319 2818 966.826 2727.2 942.396C2636.3 917.966 2545.7 893.473 2454.8 888.936C2364 884.398 2273 899.69 2182 899.69C2091 899.69 2000 884.398 1909 879.798C1818 875.26 1727 881.476 1636.2 883.03C1545.3 884.584 1454.7 881.476 1363.8 892.168C1273 902.798 1182 927.29 1091 934.936C1000 942.582 909 933.507 818 933.507C727 933.507 636 942.582 545.2 954.829C454.3 967.075 363.7 982.367 272.8 985.475C182 988.583 91 979.508 45.5 974.907L0 970.369V1072.32Z" fill="#EAEAEA"/>
<path d="M0 1127.64L45.5 1129.07C91 1130.56 182 1133.42 272.8 1127.33C363.7 1121.24 454.3 1106.07 545.2 1097C636 1087.86 727 1084.75 818 1090.84C909 1097 1000 1112.29 1091 1110.73C1182 1109.18 1273 1090.78 1363.8 1083.07C1454.7 1075.43 1545.3 1078.53 1636.2 1081.64C1727 1084.75 1818 1087.86 1909 1087.86C2000 1087.86 2091 1084.75 2182 1075.55C2273 1066.29 2364 1051 2454.8 1057.09C2545.7 1063.18 2636.3 1090.78 2727.2 1101.41C2818 1112.1 2909 1105.89 2954.5 1102.78L3000 1099.67V1071.07L2954.5 1067.97C2909 1064.86 2818 1058.64 2727.2 1046.4C2636.3 1034.21 2545.7 1015.94 2454.8 1006.86C2364 997.721 2273 997.721 2182 1000.71C2091 1003.75 2000 1009.72 1909 1018.86C1818 1027.99 1727 1040.18 1636.2 1044.84C1545.3 1049.5 1454.7 1046.64 1363.8 1045.15C1273 1043.72 1182 1043.72 1091 1039.06C1000 1034.4 909 1025.07 818 1026.5C727 1027.99 636 1040.18 545.2 1053.98C454.3 1067.78 363.7 1083.07 272.8 1086.18C182 1089.29 91 1080.21 45.5 1075.61L0 1071.07V1127.64Z" fill="#E0E0E0"/>
<path d="M0 1191.67H45.5C91 1191.67 182 1191.67 272.8 1191.67C363.7 1191.67 454.3 1191.67 545.2 1191.67C636 1191.67 727 1191.67 818 1191.67C909 1191.67 1000 1191.67 1091 1191.67C1182 1191.67 1273 1191.67 1363.8 1191.67C1454.7 1191.67 1545.3 1191.67 1636.2 1191.67C1727 1191.67 1818 1191.67 1909 1191.67C2000 1191.67 2091 1191.67 2182 1191.67C2273 1191.67 2364 1191.67 2454.8 1191.67C2545.7 1191.67 2636.3 1191.67 2727.2 1191.67C2818 1191.67 2909 1191.67 2954.5 1191.67H3000V1098.43L2954.5 1101.53C2909 1104.64 2818 1110.86 2727.2 1100.17C2636.3 1089.54 2545.7 1061.94 2454.8 1055.84C2364 1049.75 2273 1065.04 2182 1074.31C2091 1083.51 2000 1086.61 1909 1086.61C1818 1086.61 1727 1083.51 1636.2 1080.4C1545.3 1077.29 1454.7 1074.18 1363.8 1081.83C1273 1089.54 1182 1107.94 1091 1109.49C1000 1111.04 909 1095.75 818 1089.6C727 1083.51 636 1086.61 545.2 1095.75C454.3 1104.83 363.7 1120 272.8 1126.09C182 1132.18 91 1129.32 45.5 1127.83L0 1126.4V1191.67Z" fill="#D5D5D5"/>
<path d="M0 0L100 2.30001C200 4.53789 400 9.13804 600 20.3896C800 31.7033 1000 49.7306 1200 58.7443C1400 67.758 1600 67.758 1800 59.1794C2000 50.5387 2200 33.3817 2400 25.6735C2600 18.0274 2800 19.8923 2900 20.8247L3000 21.7572V280.356H2900C2800 280.356 2600 280.356 2400 280.356C2200 280.356 2000 280.356 1800 280.356C1600 280.356 1400 280.356 1200 280.356C1000 280.356 800 280.356 600 280.356C400 280.356 200 280.356 100 280.356H0V0Z" fill="#F8F7F7"/>
<path d="M0 120.597L100 124.513C200 128.492 400 136.324 600 123.208C800 110.029 1000 75.8394 1200 62.5986C1400 49.2957 1600 57.004 1800 61.5419C2000 66.0798 2200 67.5718 2400 74.7827C2600 82.0558 2800 95.1101 2900 101.637L3000 108.164V280.357H2900C2800 280.357 2600 280.357 2400 280.357C2200 280.357 2000 280.357 1800 280.357C1600 280.357 1400 280.357 1200 280.357C1000 280.357 800 280.357 600 280.357C400 280.357 200 280.357 100 280.357H0V120.597Z" fill="#EFEEEE"/>
<path d="M0 91.3809L100 100.581C200 109.843 400 128.244 600 132.533C800 136.76 1000 126.814 1200 120.411C1400 113.946 1600 111.087 1800 116.37C2000 121.654 2200 135.082 2400 147.017C2600 158.952 2800 169.271 2900 174.493L3000 179.653V280.357H2900C2800 280.357 2600 280.357 2400 280.357C2200 280.357 2000 280.357 1800 280.357C1600 280.357 1400 280.357 1200 280.357C1000 280.357 800 280.357 600 280.357C400 280.357 200 280.357 100 280.357H0V91.3809Z" fill="#E6E6E6"/>
<path d="M0 142.354L100 148.073C200 153.729 400 165.167 600 166.286C800 167.405 1000 158.329 1200 159.448C1400 160.567 1600 172.005 1800 170.016C2000 168.027 2200 152.735 2400 148.756C2600 144.84 2800 152.3 2900 156.029L3000 159.759V280.356H2900C2800 280.356 2600 280.356 2400 280.356C2200 280.356 2000 280.356 1800 280.356C1600 280.356 1400 280.356 1200 280.356C1000 280.356 800 280.356 600 280.356C400 280.356 200 280.356 100 280.356H0V142.354Z" fill="#DDDDDD"/>
<path d="M0 216.328L100 220.555C200 224.845 400 233.299 600 237.339C800 241.38 1000 241.007 1200 238.583C1400 236.22 1600 231.869 1800 227.331C2000 222.731 2200 218.007 2400 219.561C2600 221.115 2800 228.947 2900 232.926L3000 236.842V280.356H2900C2800 280.356 2600 280.356 2400 280.356C2200 280.356 2000 280.356 1800 280.356C1600 280.356 1400 280.356 1200 280.356C1000 280.356 800 280.356 600 280.356C400 280.356 200 280.356 100 280.356H0V216.328Z" fill="#D5D5D5"/>
<path d="M0 1477L100 1460.53C200 1444.05 400 1411.11 600 1405.39C800 1399.73 1000 1421.24 1200 1421.86C1400 1422.48 1600 1402.22 1800 1401.97C2000 1401.78 2200 1421.67 2400 1420.56C2600 1419.37 2800 1397.24 2900 1386.12L3000 1375.05V1186.7H2900C2800 1186.7 2600 1186.7 2400 1186.7C2200 1186.7 2000 1186.7 1800 1186.7C1600 1186.7 1400 1186.7 1200 1186.7C1000 1186.7 800 1186.7 600 1186.7C400 1186.7 200 1186.7 100 1186.7H0V1477Z" fill="#F8F7F7"/>
<path d="M0 1374.43L100 1377.35C200 1380.21 400 1386.05 600 1382.39C800 1378.78 1000 1365.73 1200 1358.58C1400 1351.43 1600 1350.19 1800 1357.96C2000 1365.73 2200 1382.51 2400 1389.85C2600 1397.24 2800 1395.13 2900 1394.14L3000 1393.08V1186.7H2900C2800 1186.7 2600 1186.7 2400 1186.7C2200 1186.7 2000 1186.7 1800 1186.7C1600 1186.7 1400 1186.7 1200 1186.7C1000 1186.7 800 1186.7 600 1186.7C400 1186.7 200 1186.7 100 1186.7H0V1374.43Z" fill="#EFEEEE"/>
<path d="M0 1307.92L100 1308.54C200 1309.16 400 1310.4 600 1316.12C800 1321.78 1000 1331.97 1200 1342.11C1400 1352.24 1600 1362.43 1800 1359.95C2000 1357.46 2200 1342.29 2400 1339.74C2600 1337.13 2800 1347.08 2900 1352.05L3000 1357.02V1186.7H2900C2800 1186.7 2600 1186.7 2400 1186.7C2200 1186.7 2000 1186.7 1800 1186.7C1600 1186.7 1400 1186.7 1200 1186.7C1000 1186.7 800 1186.7 600 1186.7C400 1186.7 200 1186.7 100 1186.7H0V1307.92Z" fill="#E6E6E6"/>
<path d="M0 1325.94L100 1319.85C200 1313.7 400 1301.51 600 1294.99C800 1288.46 1000 1287.59 1200 1289.14C1400 1290.7 1600 1294.67 1800 1301.58C2000 1308.54 2200 1318.48 2400 1316.62C2600 1314.75 2800 1301.08 2900 1294.24L3000 1287.4V1186.7H2900C2800 1186.7 2600 1186.7 2400 1186.7C2200 1186.7 2000 1186.7 1800 1186.7C1600 1186.7 1400 1186.7 1200 1186.7C1000 1186.7 800 1186.7 600 1186.7C400 1186.7 200 1186.7 100 1186.7H0V1325.94Z" fill="#DDDDDD"/>
<path d="M0 1237.05L100 1236.74C200 1236.43 400 1235.81 600 1241.71C800 1247.62 1000 1260.05 1200 1257.25C1400 1254.46 1600 1236.43 1800 1230.65C2000 1224.8 2200 1231.27 2400 1233.01C2600 1234.75 2800 1231.89 2900 1230.4L3000 1228.97V1186.7H2900C2800 1186.7 2600 1186.7 2400 1186.7C2200 1186.7 2000 1186.7 1800 1186.7C1600 1186.7 1400 1186.7 1200 1186.7C1000 1186.7 800 1186.7 600 1186.7C400 1186.7 200 1186.7 100 1186.7H0V1237.05Z" fill="#D5D5D5"/>
</svg>
