<svg width="3000" height="1477" viewBox="0 0 3000 1477" fill="none" xmlns="http://www.w3.org/2000/svg">
<g clip-path="url(#clip0_118_129)">
<path d="M0 0L100 41.3C200 82.7 400 165.3 600 187.7C800 210 1000 172 1200 153.5C1400 135 1600 136 1800 148C2000 160 2200 183 2400 166.5C2600 150 2800 94 2900 66L3000 38V982H2900C2800 982 2600 982 2400 982C2200 982 2000 982 1800 982C1600 982 1400 982 1200 982C1000 982 800 982 600 982C400 982 200 982 100 982H0V0Z" fill="#031545"/>
<path d="M0 339L100 310C200 281 400 223 600 222.8C800 222.7 1000 280.3 1200 289.3C1400 298.3 1600 258.7 1800 219.5C2000 180.3 2200 141.7 2400 137.8C2600 134 2800 165 2900 180.5L3000 196V982H2900C2800 982 2600 982 2400 982C2200 982 2000 982 1800 982C1600 982 1400 982 1200 982C1000 982 800 982 600 982C400 982 200 982 100 982H0V339Z" fill="#01143D"/>
<path d="M0 215L100 244.7C200 274.3 400 333.7 600 340.7C800 347.7 1000 302.3 1200 294.5C1400 286.7 1600 316.3 1800 318C2000 319.7 2200 293.3 2400 301C2600 308.7 2800 350.3 2900 371.2L3000 392V982H2900C2800 982 2600 982 2400 982C2200 982 2000 982 1800 982C1600 982 1400 982 1200 982C1000 982 800 982 600 982C400 982 200 982 100 982H0V215Z" fill="#021234"/>
<path d="M0 515L100 503.2C200 491.3 400 467.7 600 454.7C800 441.7 1000 439.3 1200 455.5C1400 471.7 1600 506.3 1800 500.7C2000 495 2200 449 2400 422.2C2600 395.3 2800 387.7 2900 383.8L3000 380V982H2900C2800 982 2600 982 2400 982C2200 982 2000 982 1800 982C1600 982 1400 982 1200 982C1000 982 800 982 600 982C400 982 200 982 100 982H0V515Z" fill="#04102C"/>
<path d="M0 495L100 517.8C200 540.7 400 586.3 600 606.8C800 627.3 1000 622.7 1200 621.5C1400 620.3 1600 622.7 1800 625.2C2000 627.7 2200 630.3 2400 619.5C2600 608.7 2800 584.3 2900 572.2L3000 560V982H2900C2800 982 2600 982 2400 982C2200 982 2000 982 1800 982C1600 982 1400 982 1200 982C1000 982 800 982 600 982C400 982 200 982 100 982H0V495Z" fill="#040D24"/>
<path d="M0 727.043L100 708.816C200 690.728 400 654.275 600 660.764C800 667.254 1000 716.411 1200 725.386C1400 734.361 1600 703.155 1800 686.585C2000 670.016 2200 668.083 2400 666.978C2600 665.873 2800 665.321 2900 665.183L3000 664.907V1104H2900C2800 1104 2600 1104 2400 1104C2200 1104 2000 1104 1800 1104C1600 1104 1400 1104 1200 1104C1000 1104 800 1104 600 1104C400 1104 200 1104 100 1104H0V727.043Z" fill="#02091C"/>
<path d="M0 808.957L100 826.032C200 842.808 400 876.96 600 876.96C800 876.96 1000 842.809 1200 867.373C1400 891.938 1600 974.62 1800 1015.66C2000 1056.7 2200 1055.5 2400 1009.07C2600 962.637 2800 870.968 2900 824.834L3000 779V1477H2900C2800 1477 2600 1477 2400 1477C2200 1477 2000 1477 1800 1477C1600 1477 1400 1477 1200 1477C1000 1477 800 1477 600 1477C400 1477 200 1477 100 1477H0V808.957Z" fill="#000513"/>
</g>
<defs>
<clipPath id="clip0_118_129">
<rect width="3000" height="1477" fill="white"/>
</clipPath>
</defs>
</svg>
