<svg width="3000" height="1478" viewBox="0 0 3000 1478" fill="none" xmlns="http://www.w3.org/2000/svg">
<path d="M0 13.9125L71.5 9.0592C143 4.26509 286 -5.44151 428.8 6.33663C571.7 18.0556 714.3 51.2001 857.2 60.7883C1000 70.3173 1143 56.3493 1285.8 71.3236C1428.7 86.2978 1571.3 130.333 1714.2 129.326C1857 128.32 2000 82.3915 2142.8 73.3951C2285.7 64.3987 2428.3 92.4532 2571.2 88.9612C2714 85.5284 2857 50.6082 2928.5 33.1482L3000 15.6881V310.438H2928.5C2857 310.438 2714 310.438 2571.2 310.438C2428.3 310.438 2285.7 310.438 2142.8 310.438C2000 310.438 1857 310.438 1714.2 310.438C1571.3 310.438 1428.7 310.438 1285.8 310.438C1143 310.438 1000 310.438 857.2 310.438C714.3 310.438 571.7 310.438 428.8 310.438C286 310.438 143 310.438 71.5 310.438H0V13.9125Z" fill="#163EB6"/>
<path d="M0 87.8959L71.5 105.178C143 122.402 286 156.967 428.8 165.312C571.7 173.717 714.3 155.961 857.2 156.138C1000 156.375 1143 174.486 1285.8 161.465C1428.7 148.444 1571.3 104.291 1714.2 97.9576C1857 91.6247 2000 123.23 2142.8 125.894C2285.7 128.557 2428.3 102.278 2571.2 89.198C2714 76.0586 2857 76.0586 2928.5 76.0586H3000V310.438H2928.5C2857 310.438 2714 310.438 2571.2 310.438C2428.3 310.438 2285.7 310.438 2142.8 310.438C2000 310.438 1857 310.438 1714.2 310.438C1571.3 310.438 1428.7 310.438 1285.8 310.438C1143 310.438 1000 310.438 857.2 310.438C714.3 310.438 571.7 310.438 428.8 310.438C286 310.438 143 310.438 71.5 310.438H0V87.8959Z" fill="#10359F"/>
<path d="M0 96.7734L71.5 111.156C143 125.597 286 154.362 428.8 169.159C571.7 183.955 714.3 184.784 857.2 191.472C1000 198.16 1143 210.826 1285.8 205.677C1428.7 200.528 1571.3 177.682 1714.2 164.66C1857 151.639 2000 148.443 2142.8 137.435C2285.7 126.367 2428.3 107.427 2571.2 108.611C2714 109.794 2857 131.102 2928.5 141.755L3000 152.409V310.437H2928.5C2857 310.437 2714 310.437 2571.2 310.437C2428.3 310.437 2285.7 310.437 2142.8 310.437C2000 310.437 1857 310.437 1714.2 310.437C1571.3 310.437 1428.7 310.437 1285.8 310.437C1143 310.437 1000 310.437 857.2 310.437C714.3 310.437 571.7 310.437 428.8 310.437C286 310.437 143 310.437 71.5 310.437H0V96.7734Z" fill="#0B2D88"/>
<path d="M0 241.189L71.5 228.049C143 214.969 286 188.69 428.8 172.532C571.7 156.374 714.3 150.219 857.2 151.817C1000 153.415 1143 162.648 1285.8 175.373C1428.7 188.098 1571.3 204.315 1714.2 210.293C1857 216.33 2000 212.187 2142.8 199.462C2285.7 186.737 2428.3 165.43 2571.2 156.966C2714 148.443 2857 152.823 2928.5 154.954L3000 157.144V310.437H2928.5C2857 310.437 2714 310.437 2571.2 310.437C2428.3 310.437 2285.7 310.437 2142.8 310.437C2000 310.437 1857 310.437 1714.2 310.437C1571.3 310.437 1428.7 310.437 1285.8 310.437C1143 310.437 1000 310.437 857.2 310.437C714.3 310.437 571.7 310.437 428.8 310.437C286 310.437 143 310.437 71.5 310.437H0V241.189Z" fill="#072472"/>
<path d="M0 203.901L71.5 212.306C143 220.651 286 237.46 428.8 245.806C571.7 254.21 714.3 254.21 857.2 247.818C1000 241.366 1143 228.582 1285.8 221.184C1428.7 213.786 1571.3 211.773 1714.2 214.851C1857 217.929 2000 225.978 2142.8 234.205C2285.7 242.373 2428.3 250.659 2571.2 251.428C2714 252.257 2857 245.51 2928.5 242.195L3000 238.821V310.437H2928.5C2857 310.437 2714 310.437 2571.2 310.437C2428.3 310.437 2285.7 310.437 2142.8 310.437C2000 310.437 1857 310.437 1714.2 310.437C1571.3 310.437 1428.7 310.437 1285.8 310.437C1143 310.437 1000 310.437 857.2 310.437C714.3 310.437 571.7 310.437 428.8 310.437C286 310.437 143 310.437 71.5 310.437H0V203.901Z" fill="#041C5C"/>
<path d="M0 1451.56H71.5C143 1451.56 286 1451.56 428.8 1451.38C571.7 1451.14 714.3 1450.79 857.2 1430.13C1000 1409.53 1143 1368.69 1285.8 1379.47C1428.7 1390.18 1571.3 1452.56 1714.2 1471.21C1857 1489.85 2000 1464.75 2142.8 1443.57C2285.7 1422.38 2428.3 1404.98 2571.2 1402.31C2714 1399.65 2857 1411.72 2928.5 1417.7L3000 1423.74V1182.26H2928.5C2857 1182.26 2714 1182.26 2571.2 1182.26C2428.3 1182.26 2285.7 1182.26 2142.8 1182.26C2000 1182.26 1857 1182.26 1714.2 1182.26C1571.3 1182.26 1428.7 1182.26 1285.8 1182.26C1143 1182.26 1000 1182.26 857.2 1182.26C714.3 1182.26 571.7 1182.26 428.8 1182.26C286 1182.26 143 1182.26 71.5 1182.26H0V1451.56Z" fill="#163EB6"/>
<path d="M0 1304.77L71.5 1312.88C143 1320.93 286 1337.15 428.8 1355.38C571.7 1373.61 714.3 1393.97 857.2 1387.93C1000 1381.89 1143 1349.58 1285.8 1340.46C1428.7 1331.41 1571.3 1345.61 1714.2 1366.15C1857 1386.63 2000 1413.5 2142.8 1415.63C2285.7 1417.82 2428.3 1395.33 2571.2 1389.71C2714 1384.08 2857 1395.33 2928.5 1400.95L3000 1406.57V1182.26H2928.5C2857 1182.26 2714 1182.26 2571.2 1182.26C2428.3 1182.26 2285.7 1182.26 2142.8 1182.26C2000 1182.26 1857 1182.26 1714.2 1182.26C1571.3 1182.26 1428.7 1182.26 1285.8 1182.26C1143 1182.26 1000 1182.26 857.2 1182.26C714.3 1182.26 571.7 1182.26 428.8 1182.26C286 1182.26 143 1182.26 71.5 1182.26H0V1304.77Z" fill="#10359F"/>
<path d="M0 1376.98L71.5 1365.32C143 1353.72 286 1330.4 428.8 1332C571.7 1333.6 714.3 1359.99 857.2 1365.62C1000 1371.24 1143 1356.09 1285.8 1338.51C1428.7 1320.93 1571.3 1301.04 1714.2 1304.36C1857 1307.73 2000 1334.37 2142.8 1352.42C2285.7 1370.47 2428.3 1379.94 2571.2 1368.1C2714 1356.27 2857 1323.12 2928.5 1306.55L3000 1289.98V1182.26H2928.5C2857 1182.26 2714 1182.26 2571.2 1182.26C2428.3 1182.26 2285.7 1182.26 2142.8 1182.26C2000 1182.26 1857 1182.26 1714.2 1182.26C1571.3 1182.26 1428.7 1182.26 1285.8 1182.26C1143 1182.26 1000 1182.26 857.2 1182.26C714.3 1182.26 571.7 1182.26 428.8 1182.26C286 1182.26 143 1182.26 71.5 1182.26H0V1376.98Z" fill="#0B2D88"/>
<path d="M0 1287.02L71.5 1290.98C143 1294.89 286 1302.82 428.8 1299.86C571.7 1296.9 714.3 1283.05 857.2 1282.87C1000 1282.7 1143 1296.07 1285.8 1306.37C1428.7 1316.61 1571.3 1323.71 1714.2 1324.3C1857 1324.9 2000 1318.98 2142.8 1308.15C2285.7 1297.26 2428.3 1281.51 2571.2 1269.85C2714 1258.19 2857 1250.74 2928.5 1246.95L3000 1243.22V1182.26H2928.5C2857 1182.26 2714 1182.26 2571.2 1182.26C2428.3 1182.26 2285.7 1182.26 2142.8 1182.26C2000 1182.26 1857 1182.26 1714.2 1182.26C1571.3 1182.26 1428.7 1182.26 1285.8 1182.26C1143 1182.26 1000 1182.26 857.2 1182.26C714.3 1182.26 571.7 1182.26 428.8 1182.26C286 1182.26 143 1182.26 71.5 1182.26H0V1287.02Z" fill="#072472"/>
<path d="M0 1272.81L71.5 1268.08C143 1263.34 286 1253.87 428.8 1251.39C571.7 1248.96 714.3 1253.46 857.2 1261.15C1000 1268.85 1143 1279.74 1285.8 1279.2C1428.7 1278.73 1571.3 1266.89 1714.2 1264.23C1857 1261.57 2000 1268.08 2142.8 1266.72C2285.7 1265.3 2428.3 1256.06 2571.2 1255.94C2714 1255.83 2857 1264.94 2928.5 1269.44L3000 1274V1182.26H2928.5C2857 1182.26 2714 1182.26 2571.2 1182.26C2428.3 1182.26 2285.7 1182.26 2142.8 1182.26C2000 1182.26 1857 1182.26 1714.2 1182.26C1571.3 1182.26 1428.7 1182.26 1285.8 1182.26C1143 1182.26 1000 1182.26 857.2 1182.26C714.3 1182.26 571.7 1182.26 428.8 1182.26C286 1182.26 143 1182.26 71.5 1182.26H0V1272.81Z" fill="#041C5C"/>
<path d="M0 450.118L50 454.557C100 458.996 200 467.874 300 475.154C400 482.493 500 488.175 600 475.095C700 461.955 800 429.995 900 408.214C1000 386.374 1100 374.773 1200 396.554C1300 418.335 1400 473.615 1500 483.736C1600 493.916 1700 458.996 1800 453.196C1900 447.336 2000 470.656 2100 489.596C2200 508.535 2300 523.095 2400 510.015C2500 496.875 2600 456.037 2700 458.996C2800 461.955 2900 508.713 2950 532.092L3000 555.47V309.846H2950C2900 309.846 2800 309.846 2700 309.846C2600 309.846 2500 309.846 2400 309.846C2300 309.846 2200 309.846 2100 309.846C2000 309.846 1900 309.846 1800 309.846C1700 309.846 1600 309.846 1500 309.846C1400 309.846 1300 309.846 1200 309.846C1100 309.846 1000 309.846 900 309.846C800 309.846 700 309.846 600 309.846C500 309.846 400 309.846 300 309.846C200 309.846 100 309.846 50 309.846H0V450.118Z" fill="#041C5C"/>
<path d="M0 511.672L50 513.033C100 514.454 200 517.177 300 528.836C400 540.496 500 560.975 600 552.333C700 543.633 800 505.754 900 478.054C1000 450.296 1100 432.776 1200 458.996C1300 485.216 1400 555.293 1500 571.332C1600 587.431 1700 549.552 1800 545.113C1900 540.674 2000 569.675 2100 579.855C2200 589.976 2300 581.335 2400 556.536C2500 531.796 2600 490.957 2700 493.916C2800 496.876 2900 543.633 2950 567.012L3000 590.39V554.287L2950 530.908C2900 507.529 2800 460.772 2700 457.812C2600 454.853 2500 495.692 2400 508.831C2300 521.911 2200 507.352 2100 488.412C2000 469.472 1900 446.153 1800 452.012C1700 457.812 1600 492.732 1500 482.552C1400 472.431 1300 417.151 1200 395.37C1100 373.59 1000 385.19 900 407.03C800 428.811 700 460.772 600 473.911C500 486.991 400 481.309 300 473.97C200 466.69 100 457.812 50 453.373L0 448.934V511.672Z" fill="#08287B"/>
<path d="M0 563.756L50 575.416C100 587.016 200 610.336 300 636.556C400 662.775 500 692.013 600 692.013C700 692.013 800 662.775 900 614.775C1000 566.715 1100 499.834 1200 521.733C1300 543.633 1400 654.312 1500 677.572C1600 700.891 1700 636.733 1800 619.273C1900 601.813 2000 631.051 2100 660.23C2200 689.409 2300 718.647 2400 715.688C2500 712.729 2600 677.572 2700 671.653C2800 665.735 2900 689.054 2950 700.655L3000 712.314V589.206L2950 565.828C2900 542.449 2800 495.691 2700 492.732C2600 489.773 2500 530.611 2400 555.351C2300 580.151 2200 588.792 2100 578.671C2000 568.491 1900 539.489 1800 543.928C1700 548.367 1600 586.247 1500 570.148C1400 554.109 1300 484.032 1200 457.812C1100 431.592 1000 449.111 900 476.87C800 504.569 700 542.449 600 551.149C500 559.791 400 539.312 300 527.652C200 515.992 100 513.27 50 511.849L0 510.488V563.756Z" fill="#0F349B"/>
<path d="M0 695.15L50 706.81C100 718.41 200 741.73 300 750.49C400 759.249 500 753.567 600 738.948C700 724.329 800 700.891 900 667.332C1000 633.774 1100 590.212 1200 614.952C1300 639.692 1400 732.852 1500 744.453C1600 756.112 1700 686.272 1800 677.572C1900 668.93 2000 721.37 2100 744.689C2200 767.95 2300 762.031 2400 744.571C2500 727.111 2600 698.109 2700 709.769C2800 721.37 2900 773.691 2950 799.792L3000 825.953V711.13L2950 699.471C2900 687.87 2800 664.551 2700 670.469C2600 676.388 2500 711.545 2400 714.504C2300 717.463 2200 688.225 2100 659.046C2000 629.867 1900 600.629 1800 618.089C1700 635.549 1600 699.707 1500 676.388C1400 653.128 1300 542.449 1200 520.549C1100 498.65 1000 565.531 900 613.591C800 661.591 700 690.829 600 690.829C500 690.829 400 661.591 300 635.372C200 609.152 100 585.832 50 574.232L0 562.572V695.15Z" fill="#163EB6"/>
<path d="M0 764.991L50 778.13C100 791.21 200 817.489 300 839.388C400 861.287 500 878.807 600 858.387C700 837.968 800 779.61 900 725.632C1000 671.653 1100 622.173 1200 657.153C1300 692.191 1400 811.748 1500 839.447C1600 867.206 1700 803.048 1800 785.528C1900 767.95 2000 796.951 2100 802.752C2200 808.611 2300 791.21 2400 776.71C2500 762.209 2600 750.608 2700 781.149C2800 811.748 2900 884.548 2950 920.947L3000 957.347V824.769L2950 798.609C2900 772.507 2800 720.186 2700 708.586C2600 696.926 2500 725.928 2400 743.388C2300 760.848 2200 766.766 2100 743.506C2000 720.186 1900 667.747 1800 676.388C1700 685.089 1600 754.929 1500 743.269C1400 731.669 1300 638.509 1200 613.769C1100 589.029 1000 632.59 900 666.149C800 699.708 700 723.146 600 737.765C500 752.384 400 758.066 300 749.306C200 740.547 100 717.227 50 705.627L0 693.967V764.991Z" fill="#163EB6"/>
<path d="M0 948.469L50 965.93C100 983.39 200 1018.31 300 1012.51C400 1006.65 500 960.129 600 920.829C700 881.589 800 849.628 900 823.408C1000 797.129 1100 776.651 1200 823.171C1300 869.751 1400 983.39 1500 987.829C1600 992.268 1700 887.507 1800 848.266C1900 808.967 2000 835.245 2100 864.306C2200 893.426 2300 925.387 2400 937.046C2500 948.647 2600 940.006 2700 960.425C2800 980.845 2900 1030.32 2950 1055.12L3000 1079.86V956.164L2950 919.764C2900 883.364 2800 810.565 2700 779.965C2600 749.425 2500 761.025 2400 775.526C2300 790.027 2200 807.428 2100 801.568C2000 795.768 1900 766.766 1800 784.345C1700 801.864 1600 866.022 1500 838.264C1400 810.565 1300 691.008 1200 655.969C1100 620.99 1000 670.47 900 724.448C800 778.426 700 836.784 600 857.204C500 877.623 400 860.104 300 838.205C200 816.306 100 790.027 50 776.947L0 763.807V948.469Z" fill="#0F349B"/>
<path d="M0 957.347L50 974.807C100 992.267 200 1027.19 300 1027.19C400 1027.19 500 992.267 600 967.527C700 942.728 800 928.168 900 903.369C1000 878.629 1100 843.709 1200 878.747C1300 913.727 1400 1018.72 1500 1028.84C1600 1039.02 1700 954.388 1800 916.508C1900 878.629 2000 887.507 2100 912.247C2200 937.046 2300 977.648 2400 989.308C2500 1000.97 2600 983.567 2700 1002.51C2800 1021.45 2900 1076.73 2950 1104.31L3000 1131.95V1078.68L2950 1053.94C2900 1029.14 2800 979.66 2700 959.241C2600 938.822 2500 947.463 2400 935.862C2300 924.203 2200 892.242 2100 863.122C2000 834.061 1900 807.782 1800 847.082C1700 886.323 1600 991.083 1500 986.644C1400 982.205 1300 868.567 1200 821.987C1100 775.467 1000 795.945 900 822.224C800 848.444 700 880.404 600 919.645C500 958.945 400 1005.47 300 1011.33C200 1017.13 100 982.205 50 964.745L0 947.285V957.347Z" fill="#08287B"/>
<path d="M0 1184.62H50C100 1184.62 200 1184.62 300 1184.62C400 1184.62 500 1184.62 600 1184.62C700 1184.62 800 1184.62 900 1184.62C1000 1184.62 1100 1184.62 1200 1184.62C1300 1184.62 1400 1184.62 1500 1184.62C1600 1184.62 1700 1184.62 1800 1184.62C1900 1184.62 2000 1184.62 2100 1184.62C2200 1184.62 2300 1184.62 2400 1184.62C2500 1184.62 2600 1184.62 2700 1184.62C2800 1184.62 2900 1184.62 2950 1184.62H3000V1130.76L2950 1103.12C2900 1075.54 2800 1020.26 2700 1001.32C2600 982.383 2500 999.784 2400 988.124C2300 976.465 2200 935.863 2100 911.063C2000 886.323 1900 877.445 1800 915.325C1700 953.204 1600 1037.84 1500 1027.66C1400 1017.54 1300 912.543 1200 877.564C1100 842.525 1000 877.445 900 902.185C800 926.985 700 941.544 600 966.344C500 991.084 400 1026 300 1026C200 1026 100 991.084 50 973.624L0 956.164V1184.62Z" fill="#041C5C"/>
</svg>
