<svg width="3000" height="1477" viewBox="0 0 3000 1477" fill="none" xmlns="http://www.w3.org/2000/svg">
<path d="M0 414.279H50C100 414.279 200 414.279 300 414.279C400 414.279 500 414.279 600 404.114C700 394.008 800 373.678 900 367.887C1000 362.095 1100 370.723 1200 373.619C1300 376.456 1400 373.501 1500 380.77C1600 388.098 1700 405.591 1800 414.397C1900 423.144 2000 423.144 2100 421.666C2200 420.189 2300 417.234 2400 404.114C2500 391.053 2600 367.769 2700 366.291C2800 364.814 2900 385.143 2950 395.249L3000 405.414V309.084H2950C2900 309.084 2800 309.084 2700 309.084C2600 309.084 2500 309.084 2400 309.084C2300 309.084 2200 309.084 2100 309.084C2000 309.084 1900 309.084 1800 309.084C1700 309.084 1600 309.084 1500 309.084C1400 309.084 1300 309.084 1200 309.084C1100 309.084 1000 309.084 900 309.084C800 309.084 700 309.084 600 309.084C500 309.084 400 309.084 300 309.084C200 309.084 100 309.084 50 309.084H0V414.279Z" fill="#041C5C"/>
<path d="M0 484.015L50 475.327C100 466.699 200 449.324 300 456.652C400 463.921 500 495.835 600 495.835C700 495.835 800 463.921 900 440.696C1000 417.411 1100 402.873 1200 395.545C1300 388.276 1400 388.276 1500 399.918C1600 411.501 1700 434.786 1800 446.369C1900 458.012 2000 458.012 2100 456.534C2200 455.057 2300 452.102 2400 438.982C2500 425.921 2600 402.637 2700 405.592C2800 408.546 2900 437.741 2950 452.279L3000 466.876V404.232L2950 394.067C2900 383.962 2800 363.632 2700 365.109C2600 366.587 2500 389.871 2400 402.932C2300 416.052 2200 419.007 2100 420.484C2000 421.962 1900 421.962 1800 413.215C1700 404.41 1600 386.917 1500 379.588C1400 372.319 1300 375.274 1200 372.437C1100 369.542 1000 360.913 900 366.705C800 372.497 700 392.826 600 402.932C500 413.097 400 413.097 300 413.097C200 413.097 100 413.097 50 413.097H0V484.015Z" fill="#031A53"/>
<path d="M0 562.615L50 559.778C100 556.882 200 551.209 300 565.747C400 580.344 500 615.212 600 612.257C700 609.302 800 568.525 900 527.747C1000 486.969 1100 446.191 1200 444.714C1300 443.236 1400 481.059 1500 508.717C1600 536.434 1700 553.927 1800 555.405C1900 556.882 2000 542.344 2100 527.747C2200 513.15 2300 498.611 2400 486.969C2500 475.327 2600 466.698 2700 479.759C2800 492.879 2900 527.747 2950 545.181L3000 562.615V465.694L2950 451.096C2900 436.558 2800 407.364 2700 404.409C2600 401.454 2500 424.739 2400 437.799C2300 450.919 2200 453.874 2100 455.352C2000 456.829 1900 456.829 1800 445.187C1700 433.603 1600 410.319 1500 398.735C1400 387.093 1300 387.093 1200 394.362C1100 401.69 1000 416.228 900 439.513C800 462.739 700 494.652 600 494.652C500 494.652 400 462.739 300 455.47C200 448.142 100 465.516 50 474.145L0 482.832V562.615Z" fill="#03174B"/>
<path d="M0 859.879L50 870.044C100 880.15 200 900.48 300 877.136C400 853.792 500 786.775 600 731.518C700 676.261 800 632.765 900 610.957C1000 589.209 1100 589.209 1200 616.808C1300 644.348 1400 699.546 1500 731.518C1600 763.549 1700 772.414 1800 750.666C1900 728.858 2000 676.497 2100 695.409C2200 714.32 2300 804.504 2400 833.581C2500 862.657 2600 830.507 2700 799.895C2800 769.282 2900 740.087 2950 725.549L3000 710.952V561.433L2950 543.999C2900 526.565 2800 491.697 2700 478.577C2600 465.517 2500 474.145 2400 485.787C2300 497.43 2200 511.968 2100 526.565C2000 541.162 1900 555.701 1800 554.223C1700 552.746 1600 535.253 1500 507.536C1400 479.878 1300 442.055 1200 443.532C1100 445.01 1000 485.787 900 526.565C800 567.343 700 608.121 600 611.076C500 614.031 400 579.163 300 564.565C200 550.027 100 555.701 50 558.596L0 561.433V859.879Z" fill="#031545"/>
<path d="M0 946.754L50 952.546C100 958.396 200 969.979 300 996.219C400 1022.4 500 1063.18 600 1039.95C700 1016.67 800 929.438 900 877.018C1000 824.598 1100 807.105 1200 820.165C1300 833.285 1400 877.018 1500 906.153C1600 935.348 1700 949.886 1800 942.617C1900 935.348 2000 906.153 2100 914.841C2200 923.528 2300 969.979 2400 981.622C2500 993.264 2600 969.979 2700 945.276C2800 920.573 2900 894.334 2950 881.273L3000 868.153V709.77L2950 724.367C2900 738.905 2800 768.1 2700 798.713C2600 829.326 2500 861.475 2400 832.399C2300 803.322 2200 713.139 2100 694.227C2000 675.316 1900 727.677 1800 749.484C1700 771.232 1600 762.367 1500 730.336C1400 698.364 1300 643.166 1200 615.627C1100 588.028 1000 588.028 900 609.776C800 631.583 700 675.079 600 730.336C500 785.593 400 852.61 300 875.954C200 899.298 100 878.968 50 868.862L0 858.698V946.754Z" fill="#031545"/>
<path d="M0 1008.22L50 1006.74C100 1005.26 200 1002.31 300 1025.53C400 1048.82 500 1098.22 600 1106.91C700 1115.6 800 1083.45 900 1045.63C1000 1007.8 1100 964.306 1200 959.933C1300 955.619 1400 990.486 1500 1002.13C1600 1013.71 1700 1002.13 1800 1010.88C1900 1019.62 2000 1048.82 2100 1063.35C2200 1077.95 2300 1077.95 2400 1067.73C2500 1057.44 2600 1037 2700 1038.47C2800 1039.95 2900 1063.35 2950 1075.12L3000 1086.82V866.971L2950 880.091C2900 893.152 2800 919.391 2700 944.094C2600 968.797 2500 992.082 2400 980.44C2300 968.797 2200 922.346 2100 913.659C2000 904.971 1900 934.166 1800 941.435C1700 948.704 1600 934.166 1500 904.971C1400 875.836 1300 832.103 1200 818.983C1100 805.923 1000 823.416 900 875.836C800 928.256 700 1015.48 600 1038.77C500 1062 400 1021.22 300 995.037C200 968.797 100 957.214 50 951.363L0 945.572V1008.22Z" fill="#03174B"/>
<path d="M0 1025.35L50 1022.52C100 1019.62 200 1013.95 300 1038.65C400 1063.35 500 1118.55 600 1140.3C700 1162.05 800 1150.46 900 1121.39C1000 1092.31 1100 1045.86 1200 1032.74C1300 1019.62 1400 1039.95 1500 1054.49C1600 1069.09 1700 1077.95 1800 1095.39C1900 1112.82 2000 1138.82 2100 1143.14C2200 1147.51 2300 1130.14 2400 1114.18C2500 1098.22 2600 1083.68 2700 1092.31C2800 1101 2900 1132.91 2950 1148.87L3000 1164.83V1085.63L2950 1073.93C2900 1062.17 2800 1038.77 2700 1037.29C2600 1035.81 2500 1056.26 2400 1066.55C2300 1076.77 2200 1076.77 2100 1062.17C2000 1047.63 1900 1018.44 1800 1009.69C1700 1000.95 1600 1012.53 1500 1000.95C1400 989.304 1300 954.436 1200 958.75C1100 963.124 1000 1006.62 900 1044.44C800 1082.27 700 1114.41 600 1105.73C500 1097.04 400 1047.63 300 1024.35C200 1001.12 100 1004.08 50 1005.56L0 1007.03V1025.35Z" fill="#031A53"/>
<path d="M0 1182.56H50C100 1182.56 200 1182.56 300 1182.56C400 1182.56 500 1182.56 600 1182.56C700 1182.56 800 1182.56 900 1182.56C1000 1182.56 1100 1182.56 1200 1182.56C1300 1182.56 1400 1182.56 1500 1182.56C1600 1182.56 1700 1182.56 1800 1182.56C1900 1182.56 2000 1182.56 2100 1182.56C2200 1182.56 2300 1182.56 2400 1182.56C2500 1182.56 2600 1182.56 2700 1182.56C2800 1182.56 2900 1182.56 2950 1182.56H3000V1163.64L2950 1147.69C2900 1131.73 2800 1099.82 2700 1091.13C2600 1082.5 2500 1097.04 2400 1113C2300 1128.95 2200 1146.33 2100 1141.95C2000 1137.64 1900 1111.64 1800 1094.2C1700 1076.77 1600 1067.9 1500 1053.31C1400 1038.77 1300 1018.44 1200 1031.56C1100 1044.68 1000 1091.13 900 1120.21C800 1149.28 700 1160.87 600 1139.12C500 1117.37 400 1062.17 300 1037.47C200 1012.77 100 1018.44 50 1021.34L0 1024.17V1182.56Z" fill="#041C5C"/>
<path d="M0 13.1594L71.5 8.31337C143 3.52641 286 -6.16568 428.8 5.59486C571.7 17.2963 714.3 50.3913 857.2 59.9652C1000 69.48 1143 55.5329 1285.8 70.4847C1428.7 85.4366 1571.3 129.406 1714.2 128.401C1857 127.396 2000 81.5361 2142.8 72.5531C2285.7 63.5702 2428.3 91.5828 2571.2 88.096C2714 84.6683 2857 49.8003 2928.5 32.3664L3000 14.9324V309.242H2928.5C2857 309.242 2714 309.242 2571.2 309.242C2428.3 309.242 2285.7 309.242 2142.8 309.242C2000 309.242 1857 309.242 1714.2 309.242C1571.3 309.242 1428.7 309.242 1285.8 309.242C1143 309.242 1000 309.242 857.2 309.242C714.3 309.242 571.7 309.242 428.8 309.242C286 309.242 143 309.242 71.5 309.242H0V13.1594Z" fill="#163EB6"/>
<path d="M0 87.0325L71.5 104.289C143 121.487 286 156 428.8 164.333C571.7 172.725 714.3 154.996 857.2 155.173C1000 155.409 1143 173.493 1285.8 160.492C1428.7 147.49 1571.3 103.403 1714.2 97.0792C1857 90.7557 2000 122.314 2142.8 124.974C2285.7 127.633 2428.3 101.393 2571.2 88.3327C2714 75.2129 2857 75.2129 2928.5 75.2129H3000V309.242H2928.5C2857 309.242 2714 309.242 2571.2 309.242C2428.3 309.242 2285.7 309.242 2142.8 309.242C2000 309.242 1857 309.242 1714.2 309.242C1571.3 309.242 1428.7 309.242 1285.8 309.242C1143 309.242 1000 309.242 857.2 309.242C714.3 309.242 571.7 309.242 428.8 309.242C286 309.242 143 309.242 71.5 309.242H0V87.0325Z" fill="#10359F"/>
<path d="M0 95.8965L71.5 110.257C143 124.677 286 153.399 428.8 168.174C571.7 182.948 714.3 183.776 857.2 190.454C1000 197.132 1143 209.779 1285.8 204.637C1428.7 199.496 1571.3 176.684 1714.2 163.682C1857 150.681 2000 147.489 2142.8 136.497C2285.7 125.446 2428.3 106.534 2571.2 107.716C2714 108.898 2857 130.173 2928.5 140.811L3000 151.449V309.241H2928.5C2857 309.241 2714 309.241 2571.2 309.241C2428.3 309.241 2285.7 309.241 2142.8 309.241C2000 309.241 1857 309.241 1714.2 309.241C1571.3 309.241 1428.7 309.241 1285.8 309.241C1143 309.241 1000 309.241 857.2 309.241C714.3 309.241 571.7 309.241 428.8 309.241C286 309.241 143 309.241 71.5 309.241H0V95.8965Z" fill="#0B2D88"/>
<path d="M0 240.096L71.5 226.976C143 213.915 286 187.676 428.8 171.542C571.7 155.408 714.3 149.262 857.2 150.858C1000 152.453 1143 161.673 1285.8 174.379C1428.7 187.085 1571.3 203.278 1714.2 209.247C1857 215.275 2000 211.138 2142.8 198.432C2285.7 185.725 2428.3 164.45 2571.2 155.999C2714 147.489 2857 151.862 2928.5 153.99L3000 156.176V309.241H2928.5C2857 309.241 2714 309.241 2571.2 309.241C2428.3 309.241 2285.7 309.241 2142.8 309.241C2000 309.241 1857 309.241 1714.2 309.241C1571.3 309.241 1428.7 309.241 1285.8 309.241C1143 309.241 1000 309.241 857.2 309.241C714.3 309.241 571.7 309.241 428.8 309.241C286 309.241 143 309.241 71.5 309.241H0V240.096Z" fill="#072472"/>
<path d="M0 202.865L71.5 211.257C143 219.59 286 236.374 428.8 244.707C571.7 253.099 714.3 253.099 857.2 246.716C1000 240.274 1143 227.509 1285.8 220.122C1428.7 212.735 1571.3 210.725 1714.2 213.798C1857 216.872 2000 224.909 2142.8 233.123C2285.7 241.279 2428.3 249.553 2571.2 250.321C2714 251.149 2857 244.411 2928.5 241.102L3000 237.733V309.242H2928.5C2857 309.242 2714 309.242 2571.2 309.242C2428.3 309.242 2285.7 309.242 2142.8 309.242C2000 309.242 1857 309.242 1714.2 309.242C1571.3 309.242 1428.7 309.242 1285.8 309.242C1143 309.242 1000 309.242 857.2 309.242C714.3 309.242 571.7 309.242 428.8 309.242C286 309.242 143 309.242 71.5 309.242H0V202.865Z" fill="#041C5C"/>
<path d="M0 1450.86H71.5C143 1450.86 286 1450.86 428.8 1450.68C571.7 1450.45 714.3 1450.09 857.2 1429.47C1000 1408.9 1143 1368.12 1285.8 1378.88C1428.7 1389.58 1571.3 1451.87 1714.2 1470.48C1857 1489.1 2000 1464.04 2142.8 1442.88C2285.7 1421.73 2428.3 1404.35 2571.2 1401.69C2714 1399.03 2857 1411.09 2928.5 1417.06L3000 1423.09V1181.96H2928.5C2857 1181.96 2714 1181.96 2571.2 1181.96C2428.3 1181.96 2285.7 1181.96 2142.8 1181.96C2000 1181.96 1857 1181.96 1714.2 1181.96C1571.3 1181.96 1428.7 1181.96 1285.8 1181.96C1143 1181.96 1000 1181.96 857.2 1181.96C714.3 1181.96 571.7 1181.96 428.8 1181.96C286 1181.96 143 1181.96 71.5 1181.96H0V1450.86Z" fill="#163EB6"/>
<path d="M0 1304.3L71.5 1312.39C143 1320.43 286 1336.62 428.8 1354.83C571.7 1373.03 714.3 1393.36 857.2 1387.33C1000 1381.3 1143 1349.04 1285.8 1339.93C1428.7 1330.89 1571.3 1345.08 1714.2 1365.58C1857 1386.03 2000 1412.86 2142.8 1414.99C2285.7 1417.18 2428.3 1394.72 2571.2 1389.1C2714 1383.49 2857 1394.72 2928.5 1400.33L3000 1405.95V1181.96H2928.5C2857 1181.96 2714 1181.96 2571.2 1181.96C2428.3 1181.96 2285.7 1181.96 2142.8 1181.96C2000 1181.96 1857 1181.96 1714.2 1181.96C1571.3 1181.96 1428.7 1181.96 1285.8 1181.96C1143 1181.96 1000 1181.96 857.2 1181.96C714.3 1181.96 571.7 1181.96 428.8 1181.96C286 1181.96 143 1181.96 71.5 1181.96H0V1304.3Z" fill="#10359F"/>
<path d="M0 1376.4L71.5 1364.76C143 1353.17 286 1329.89 428.8 1331.48C571.7 1333.08 714.3 1359.44 857.2 1365.05C1000 1370.67 1143 1355.54 1285.8 1337.98C1428.7 1320.43 1571.3 1300.57 1714.2 1303.88C1857 1307.25 2000 1333.85 2142.8 1351.87C2285.7 1369.9 2428.3 1379.35 2571.2 1367.53C2714 1355.71 2857 1322.62 2928.5 1306.07L3000 1289.52V1181.96H2928.5C2857 1181.96 2714 1181.96 2571.2 1181.96C2428.3 1181.96 2285.7 1181.96 2142.8 1181.96C2000 1181.96 1857 1181.96 1714.2 1181.96C1571.3 1181.96 1428.7 1181.96 1285.8 1181.96C1143 1181.96 1000 1181.96 857.2 1181.96C714.3 1181.96 571.7 1181.96 428.8 1181.96C286 1181.96 143 1181.96 71.5 1181.96H0V1376.4Z" fill="#0B2D88"/>
<path d="M0 1286.57L71.5 1290.53C143 1294.43 286 1302.35 428.8 1299.39C571.7 1296.44 714.3 1282.61 857.2 1282.43C1000 1282.25 1143 1295.61 1285.8 1305.89C1428.7 1316.12 1571.3 1323.21 1714.2 1323.8C1857 1324.39 2000 1318.48 2142.8 1307.67C2285.7 1296.79 2428.3 1281.07 2571.2 1269.43C2714 1257.79 2857 1250.34 2928.5 1246.56L3000 1242.84V1181.96H2928.5C2857 1181.96 2714 1181.96 2571.2 1181.96C2428.3 1181.96 2285.7 1181.96 2142.8 1181.96C2000 1181.96 1857 1181.96 1714.2 1181.96C1571.3 1181.96 1428.7 1181.96 1285.8 1181.96C1143 1181.96 1000 1181.96 857.2 1181.96C714.3 1181.96 571.7 1181.96 428.8 1181.96C286 1181.96 143 1181.96 71.5 1181.96H0V1286.57Z" fill="#072472"/>
<path d="M0 1272.39L71.5 1267.66C143 1262.93 286 1253.47 428.8 1250.99C571.7 1248.57 714.3 1253.06 857.2 1260.74C1000 1268.43 1143 1279.3 1285.8 1278.77C1428.7 1278.29 1571.3 1266.48 1714.2 1263.82C1857 1261.16 2000 1267.66 2142.8 1266.3C2285.7 1264.88 2428.3 1255.66 2571.2 1255.54C2714 1255.42 2857 1264.53 2928.5 1269.02L3000 1273.57V1181.96H2928.5C2857 1181.96 2714 1181.96 2571.2 1181.96C2428.3 1181.96 2285.7 1181.96 2142.8 1181.96C2000 1181.96 1857 1181.96 1714.2 1181.96C1571.3 1181.96 1428.7 1181.96 1285.8 1181.96C1143 1181.96 1000 1181.96 857.2 1181.96C714.3 1181.96 571.7 1181.96 428.8 1181.96C286 1181.96 143 1181.96 71.5 1181.96H0V1272.39Z" fill="#041C5C"/>
</svg>
