<?xml version="1.0" encoding="UTF-8"?><svg id="Layer_1" xmlns="http://www.w3.org/2000/svg" viewBox="0 0 258.79 76.55"><defs><style>.cls-1{fill:#0a2485;}</style></defs><g><path class="cls-1" d="M9.2,76.25c-.08,0-.15-.06-.15-.15l.06-7.3-.06-7.13c0-.08,.06-.15,.15-.15h4.97c4.25,0,7.67,2.4,7.67,7.42s-3.55,7.3-7.63,7.3h-5.01Zm2.47-2.02h2.7c2.51,0,4.78-1.53,4.78-5.3s-2.13-5.38-4.86-5.38h-2.62s-.04,3.26-.04,5.19,.04,5.47,.04,5.49Z"/><path class="cls-1" d="M22.99,76.25c-.08,0-.15-.06-.15-.15l.06-7.27-.06-7.15c0-.08,.06-.15,.15-.15h2.3c.08,0,.15,.06,.15,.15l-.06,7.15,.06,7.27c0,.08-.06,.15-.15,.15h-2.3Z"/><path class="cls-1" d="M33.54,76.55c-4.21,0-7.1-3.07-7.1-7.65s2.92-7.65,6.99-7.65c3.49,0,5.79,1.77,6.51,4.88,.02,.08-.02,.15-.11,.15h-2.37c-.08,0-.17-.06-.19-.15-.46-1.85-1.8-2.82-3.82-2.82-2.73,0-4.33,2.12-4.33,5.64s1.65,5.55,4.4,5.55c2.47,0,3.95-1.49,4.01-4.06h-4.1c-.08,0-.15-.06-.15-.15v-1.72c0-.08,.06-.15,.15-.15h6.7c.08,0,.15,.06,.15,.15,.06,5.28-2.32,7.99-6.74,7.99Z"/><path class="cls-1" d="M41.42,76.25c-.08,0-.15-.06-.15-.15l.06-7.27-.06-7.15c0-.08,.06-.15,.15-.15h2.3c.08,0,.15,.06,.15,.15l-.06,7.15,.06,7.27c0,.08-.06,.15-.15,.15h-2.3Z"/><path class="cls-1" d="M49.13,76.25c-.08,0-.15-.06-.15-.15l.08-7.19-.06-5.36h-4.14c-.08,0-.15-.06-.15-.15v-1.72c0-.08,.06-.15,.15-.15h10.92c.08,0,.15,.06,.15,.15v1.72c0,.08-.06,.15-.15,.15h-4.14l-.06,5.36,.08,7.19c0,.08-.06,.15-.15,.15h-2.39Z"/><path class="cls-1" d="M65.38,76.25c-.08,0-.17-.06-.19-.15l-1.31-3.89h-5.83l-1.27,3.89c-.02,.08-.11,.15-.19,.15h-2.35c-.08,0-.13-.06-.11-.15l5.13-14.42c.02-.08,.11-.15,.19-.15h3.17c.08,0,.17,.06,.19,.15l5.05,14.42c.02,.08-.02,.15-.11,.15h-2.39Zm-2.2-6.18l-2.24-6.73-2.2,6.73h4.44Z"/><path class="cls-1" d="M68.49,76.25c-.08,0-.15-.06-.15-.15l.06-7.36-.06-7.06c0-.08,.06-.15,.15-.15h2.3c.08,0,.15,.06,.15,.15l-.04,6.92,.04,5.63h6.34c.08,0,.15,.06,.15,.15v1.72c0,.08-.06,.15-.15,.15h-8.79Z"/><path class="cls-1" d="M81.8,76.25c-.08,0-.15-.06-.15-.15l.06-7.36-.06-7.06c0-.08,.06-.15,.15-.15h2.3c.08,0,.15,.06,.15,.15l-.04,6.92,.04,5.63h6.34c.08,0,.15,.06,.15,.15v1.72c0,.08-.06,.15-.15,.15h-8.79Z"/><path class="cls-1" d="M91.61,76.25c-.08,0-.15-.06-.15-.15l.04-7.32-.04-7.11c0-.08,.06-.15,.15-.15h9.51c.08,0,.15,.06,.15,.15v1.72c0,.08-.06,.15-.15,.15h-7.06l-.04,3.89h6.55c.08,0,.15,.06,.15,.15v1.72c0,.08-.06,.15-.15,.15h-6.55l.04,4.77h7.23c.08,0,.15,.06,.15,.15v1.72c0,.08-.06,.15-.15,.15h-9.68Z"/><path class="cls-1" d="M113.06,76.25c-.08,0-.17-.06-.19-.15l-1.31-3.89h-5.83l-1.27,3.89c-.02,.08-.11,.15-.19,.15h-2.35c-.08,0-.13-.06-.11-.15l5.13-14.42c.02-.08,.11-.15,.19-.15h3.17c.08,0,.17,.06,.19,.15l5.05,14.42c.02,.08-.02,.15-.11,.15h-2.39Zm-2.2-6.18l-2.24-6.73-2.2,6.73h4.44Z"/><path class="cls-1" d="M116.17,76.25c-.08,0-.15-.06-.15-.15l.06-7.3-.06-7.13c0-.08,.06-.15,.15-.15h4.97c4.25,0,7.67,2.4,7.67,7.42s-3.55,7.3-7.63,7.3h-5.01Zm2.47-2.02h2.7c2.51,0,4.78-1.53,4.78-5.3s-2.13-5.38-4.86-5.38h-2.62s-.04,3.26-.04,5.19,.04,5.47,.04,5.49Z"/><path class="cls-1" d="M139.96,76.55c-4.21,0-7.1-3.07-7.1-7.65s2.92-7.65,6.99-7.65c3.49,0,5.79,1.77,6.51,4.88,.02,.08-.02,.15-.11,.15h-2.37c-.08,0-.17-.06-.19-.15-.46-1.85-1.8-2.82-3.82-2.82-2.73,0-4.33,2.12-4.33,5.64s1.65,5.55,4.4,5.55c2.47,0,3.95-1.49,4.01-4.06h-4.1c-.08,0-.15-.06-.15-.15v-1.72c0-.08,.06-.15,.15-.15h6.7c.08,0,.15,.06,.15,.15,.06,5.28-2.32,7.99-6.74,7.99Z"/><path class="cls-1" d="M147.74,76.25c-.08,0-.15-.06-.15-.15l.04-7.32-.04-7.11c0-.08,.06-.15,.15-.15h9.51c.08,0,.15,.06,.15,.15v1.72c0,.08-.06,.15-.15,.15h-7.06l-.04,3.89h6.55c.08,0,.15,.06,.15,.15v1.72c0,.08-.06,.15-.15,.15h-6.55l.04,4.77h7.23c.08,0,.15,.06,.15,.15v1.72c0,.08-.06,.15-.15,.15h-9.68Z"/><path class="cls-1" d="M160.82,69.1l.02,7c0,.08-.06,.15-.15,.15h-2.13c-.08,0-.15-.06-.15-.15l.04-7.25-.04-7.17c0-.08,.06-.15,.15-.15h2.79c.08,0,.17,.04,.23,.13l6.87,11.38-.02-.72-.11-3.17v-7.46c0-.08,.06-.15,.15-.15h2.13c.08,0,.15,.06,.15,.15l-.04,7.17,.04,7.25c0,.08-.06,.15-.15,.15h-2.92c-.08,0-.17-.04-.23-.13l-6.74-11.16,.04,.92,.06,3.22Z"/><path class="cls-1" d="M185.96,76.25c-.08,0-.17-.06-.19-.15l-1.31-3.89h-5.83l-1.27,3.89c-.02,.08-.11,.15-.19,.15h-2.35c-.08,0-.13-.06-.11-.15l5.13-14.42c.02-.08,.11-.15,.19-.15h3.17c.08,0,.17,.06,.19,.15l5.05,14.42c.02,.08-.02,.15-.11,.15h-2.39Zm-2.2-6.18l-2.24-6.73-2.2,6.73h4.44Z"/><path class="cls-1" d="M195.07,76.55c-4.21,0-7.1-3.07-7.1-7.65s2.92-7.65,6.99-7.65c3.49,0,5.79,1.77,6.51,4.88,.02,.08-.02,.15-.11,.15h-2.37c-.08,0-.17-.06-.19-.15-.46-1.85-1.8-2.82-3.82-2.82-2.73,0-4.33,2.12-4.33,5.64s1.65,5.55,4.4,5.55c2.47,0,3.95-1.49,4.01-4.06h-4.1c-.08,0-.15-.06-.15-.15v-1.72c0-.08,.06-.15,.15-.15h6.7c.08,0,.15,.06,.15,.15,.06,5.28-2.32,7.99-6.74,7.99Z"/><path class="cls-1" d="M202.85,76.25c-.08,0-.15-.06-.15-.15l.04-7.32-.04-7.11c0-.08,.06-.15,.15-.15h9.51c.08,0,.15,.06,.15,.15v1.72c0,.08-.06,.15-.15,.15h-7.06l-.04,3.89h6.55c.08,0,.15,.06,.15,.15v1.72c0,.08-.06,.15-.15,.15h-6.55l.04,4.77h7.23c.08,0,.15,.06,.15,.15v1.72c0,.08-.06,.15-.15,.15h-9.68Z"/><path class="cls-1" d="M215.93,69.1l.02,7c0,.08-.06,.15-.15,.15h-2.13c-.08,0-.15-.06-.15-.15l.04-7.25-.04-7.17c0-.08,.06-.15,.15-.15h2.79c.08,0,.17,.04,.23,.13l6.87,11.38-.02-.72-.11-3.17v-7.46c0-.08,.06-.15,.15-.15h2.13c.08,0,.15,.06,.15,.15l-.04,7.17,.04,7.25c0,.08-.06,.15-.15,.15h-2.92c-.08,0-.17-.04-.23-.13l-6.74-11.16,.04,.92,.06,3.22Z"/><path class="cls-1" d="M233.89,76.55c-4.42,0-7.12-3.03-7.12-7.63s2.77-7.67,7.12-7.67c3.06,0,5.64,1.32,6.4,5.24,0,.08-.04,.15-.13,.15h-2.24c-.08,0-.17-.06-.17-.15-.44-2.08-1.84-3.15-3.91-3.15-2.83,0-4.4,2.14-4.4,5.59s1.63,5.55,4.37,5.55c2.28,0,3.63-1.22,3.97-3.49,.02-.08,.08-.15,.17-.15h2.3c.08,0,.13,.06,.13,.15-.68,3.93-3.06,5.57-6.51,5.57Z"/><path class="cls-1" d="M247.01,76.11c0,.08-.06,.15-.15,.15h-2.32c-.08,0-.15-.06-.15-.15l.04-4.75-4.94-9.69c-.02-.06,.02-.13,.08-.13h2.66c.08,0,.17,.06,.21,.13l3.36,7.27,3.4-7.27c.04-.06,.13-.13,.21-.13h2.43c.06,0,.11,.06,.08,.13l-4.94,9.69,.02,4.75Z"/></g><g><g><path class="cls-1" d="M69.9,54.12v-2.59c4.79,0,5.53-1.87,4.23-6.77l-2.2-8.02h-12.69l-2.14,8.02c-1.3,4.9-.45,6.77,4.23,6.77v2.59h-13.82v-2.59c3.95,0,4.85-1.43,6.6-7.75L66.07,.18h3.33l12.01,43.59c1.69,5.97,2.31,7.75,6.6,7.75v2.59h-18.1Zm-4.29-41.01l-5.19,19.35h10.32l-5.13-19.35Z"/><path class="cls-1" d="M115.02,13.56v20.68c0,14-6.37,21.39-13.87,21.39s-13.82-7.4-13.82-21.39V13.56c0-8.91-.73-10.34-5.25-10.34V.63h17.6V3.22c-4.51,0-5.25,1.43-5.25,10.34v20.59c0,10.79,3.27,15.87,8.4,15.87s8.74-5.17,8.74-15.87V13.56c0-8.91-.73-10.34-5.19-10.34V.63h13.93V3.22c-4.51,0-5.3,1.43-5.3,10.34Z"/><path class="cls-1" d="M140.23,54.12h-17.88v-2.59c4.51,0,5.19-1.51,5.19-10.43V13.56c0-8.91-.68-10.34-5.19-10.34V.63h17.88c12.8,0,18.44,12.03,18.44,26.74s-5.64,26.74-18.44,26.74Zm-.06-48.85h-5.53V39.23c0,8.83,.51,10.25,4.91,10.25h.62c8.52,0,10.94-10.96,10.94-22.11s-2.43-22.11-10.94-22.11Z"/><path class="cls-1" d="M186.65,54.12h-29.44v-2.59c4.51,0,5.19-1.51,5.19-10.43V13.56c0-8.91-.68-10.34-5.19-10.34V.63h27.52l.51,13.1h-1.64l-.28-1.78c-.73-4.46-1.35-6.69-6.54-6.69h-7.28V23.45h1.75c5.64,0,6.54-.98,6.54-8.47h1.64v21.66h-1.64c0-7.49-.9-8.47-6.54-8.47h-1.75v10.96c0,8.92,.68,10.34,5.36,10.34h3.78c5.19,0,5.87-2.32,6.54-6.78l.28-1.78h1.64l-.45,13.19Z"/><path class="cls-1" d="M214.74,54.12l-9.93-23.45h-2.14v10.43c0,8.92,.73,10.43,5.25,10.43v2.59h-17.54v-2.59c4.51,0,5.19-1.51,5.19-10.43V13.56c0-8.91-.68-10.34-5.19-10.34V.63h17.82c7.44,0,12.01,6.33,12.01,15.07,0,7.76-3.72,13.55-9.19,14.71l5.3,9.81c4.23,7.85,6.82,10.79,9.59,11.32v2.59h-11.17Zm-12.07-49.12V26.3h3.78c4.45,0,6.71-4.37,6.71-10.61s-2.26-10.7-6.71-10.7h-3.78Z"/><path class="cls-1" d="M258.34,54.12h-29.44v-2.59c4.51,0,5.19-1.51,5.19-10.43V13.56c0-8.91-.68-10.34-5.19-10.34V.63h27.52l.51,13.1h-1.64l-.28-1.78c-.73-4.46-1.35-6.69-6.54-6.69h-7.28V23.45h1.75c5.64,0,6.54-.98,6.54-8.47h1.64v21.66h-1.64c0-7.49-.9-8.47-6.54-8.47h-1.75v10.96c0,8.92,.68,10.34,5.36,10.34h3.78c5.19,0,5.87-2.32,6.54-6.78l.28-1.78h1.64l-.45,13.19Z"/></g><g><polygon class="cls-1" points="54.71 9.09 48.55 9.09 52.9 4.76 49.92 1.79 45.57 6.12 45.57 0 41.36 0 41.36 6.12 37.01 1.79 34.03 4.76 38.38 9.09 32.23 9.09 32.23 13.28 38.38 13.28 34.03 17.6 37.01 20.57 41.36 16.24 41.36 22.36 45.57 22.36 45.57 16.24 49.92 20.57 52.9 17.6 48.55 13.28 54.71 13.28 54.71 9.09"/><polygon class="cls-1" points="6.5 37.08 21.43 33.1 17.43 47.95 23.93 54.42 28.3 38.16 32.68 21.91 0 30.62 6.5 37.08"/></g></g></svg>